# xmcd
# 
# Track frame offsets:
#     150
#     11197
#     25435
#     38000
#     52681
#     65974
#     79270
#     91678
#     106159
#     119109
#     133532
#     146671
#     158694
#     175890
#     186055
#     198860
#     209483
#     227090
#     238582
#     251915
#     266425
#     280474
#     292001
#     302117
#     313604
# 
# Disc length: 4325
# 
# Revision: 1
# Processed by: cddbd v1.5.2PL0 Copyright (c) Steve Scherf et al.
# Submitted via: fre:ac v1.0.31
# 
DISCID=7010e319
DTITLE=Blues - Screaming and Crying Disc 3
DYEAR=2012
DGENRE=Blues
TTITLE0=Gotta Boogie
TTITLE1=Through With Women
TTITLE2=Blue Guitar
TTITLE3=You've Got To Love Her With A Feeling
TTITLE4=Blow Wind Blow
TTITLE5=Rockin The Blues Away
TTITLE6=The Sun Is Shining
TTITLE7=Honey, Where You Going
TTITLE8=Sam's Drag
TTITLE9=I Found Me A New Love
TTITLE10=When My Heart Beats Like A Hammer
TTITLE11=After Hours
TTITLE12=I'm A Stranger
TTITLE13=Look Whatcha Done
TTITLE14=Mumblin Guitar
TTITLE15=Chuck With The Boys
TTITLE16=Ooh-Ee Baby
TTITLE17=The Big Push
TTITLE18=Hoy-Hoy
TTITLE19=So Many Roads, So Many Trains
TTITLE20=A Frosty Night
TTITLE21=Please Tell Me
TTITLE22=You Don't Treat Me Right
TTITLE23=You'll Always Have A Home
TTITLE24=Roll Over Beethoven
EXTD=
EXTT0=
EXTT1=
EXTT2=
EXTT3=
EXTT4=
EXTT5=
EXTT6=
EXTT7=
EXTT8=
EXTT9=
EXTT10=
EXTT11=
EXTT12=
EXTT13=
EXTT14=
EXTT15=
EXTT16=
EXTT17=
EXTT18=
EXTT19=
EXTT20=
EXTT21=
EXTT22=
EXTT23=
EXTT24=
PLAYORDER=
